<?xml version="1.0" encoding="UTF-8"?>
<svg id="logo_en_horizontal_y_V" data-name="logo en horizontal y V" xmlns="http://www.w3.org/2000/svg" viewBox="0 0 184.55 77.4">
  <defs>
    <style>
      .cls-1 {
        fill: #fff;
      }
    </style>
  </defs>
  <g>
    <path class="cls-1" d="M64.7,55.24V23.08h19.73v3.86h-15.87v9.14h13v3.86h-13v11.44h15.87v3.86h-19.73Z"/>
    <path class="cls-1" d="M95.11,55.68c-1.24-.05-2.45-.28-3.62-.7-1.17-.42-2.2-1-3.08-1.72-.88-.73-1.52-1.57-1.92-2.52l3.31-1.42c.23.52.64,1.01,1.24,1.47.6.46,1.29.83,2.07,1.1.78.28,1.57.41,2.37.41.84,0,1.63-.13,2.37-.39.74-.26,1.34-.65,1.8-1.16.47-.51.7-1.13.7-1.85,0-.77-.26-1.37-.77-1.8-.51-.44-1.16-.78-1.93-1.03-.77-.25-1.56-.49-2.35-.72-1.58-.4-2.99-.88-4.23-1.44-1.24-.56-2.22-1.27-2.93-2.14-.71-.86-1.07-1.97-1.07-3.32,0-1.42.39-2.66,1.18-3.7.79-1.04,1.83-1.85,3.11-2.41,1.29-.57,2.66-.85,4.13-.85,1.85,0,3.55.4,5.08,1.19,1.53.8,2.67,1.88,3.42,3.24l-3.1,1.81c-.26-.55-.66-1.04-1.19-1.46-.54-.42-1.15-.75-1.84-1-.69-.24-1.39-.37-2.11-.39-.89-.03-1.72.08-2.49.34-.77.26-1.39.65-1.86,1.18-.47.53-.7,1.18-.7,1.96s.25,1.35.75,1.75c.5.4,1.15.72,1.95.95.8.24,1.68.51,2.63.82,1.39.44,2.69.96,3.9,1.54,1.21.58,2.19,1.31,2.93,2.18.74.87,1.11,1.95,1.09,3.24,0,1.41-.42,2.64-1.26,3.69-.84,1.05-1.93,1.85-3.27,2.4-1.34.55-2.78.8-4.31.73Z"/>
    <path class="cls-1" d="M122.15,49.18l3.45,1.86c-1.04,1.46-2.36,2.62-3.96,3.49-1.6.87-3.34,1.31-5.2,1.31-2.11,0-4.04-.54-5.78-1.63-1.74-1.09-3.12-2.55-4.16-4.38-1.03-1.83-1.55-3.86-1.55-6.08,0-1.68.3-3.26.9-4.72.6-1.46,1.42-2.75,2.47-3.86,1.05-1.11,2.27-1.98,3.66-2.61,1.39-.63,2.88-.94,4.46-.94,1.87,0,3.6.44,5.2,1.31,1.6.87,2.92,2.04,3.96,3.51l-3.45,1.86c-.74-.9-1.61-1.6-2.62-2.09-1.01-.49-2.04-.73-3.1-.73-1.42,0-2.71.38-3.87,1.14-1.16.76-2.07,1.77-2.75,3.02-.67,1.26-1.01,2.63-1.01,4.11s.34,2.85,1.02,4.1c.68,1.25,1.6,2.25,2.76,3,1.16.75,2.44,1.13,3.85,1.13,1.13,0,2.2-.26,3.19-.78,1-.52,1.84-1.19,2.53-2.02Z"/>
    <path class="cls-1" d="M127.94,55.24V20.78h3.86v34.46h-3.86Z"/>
    <path class="cls-1" d="M154.2,32.27h3.86v22.97h-3.86l-.16-3.88c-.72,1.33-1.71,2.41-2.97,3.24-1.26.83-2.77,1.24-4.51,1.24s-3.26-.32-4.73-.95c-1.47-.64-2.77-1.52-3.89-2.64-1.13-1.13-2-2.42-2.63-3.89-.63-1.47-.94-3.06-.94-4.75s.31-3.18.92-4.64c.61-1.45,1.47-2.73,2.56-3.82,1.09-1.09,2.36-1.95,3.8-2.57,1.44-.62,2.99-.93,4.64-.93,1.81,0,3.39.43,4.75,1.27,1.36.85,2.47,1.95,3.31,3.3l-.14-3.93ZM146.48,52.09c1.52,0,2.83-.37,3.94-1.11,1.11-.74,1.97-1.75,2.57-3.02.6-1.27.91-2.67.91-4.2s-.31-2.97-.92-4.24c-.61-1.26-1.47-2.27-2.58-3.01-1.11-.74-2.42-1.11-3.92-1.11s-2.89.38-4.13,1.13c-1.24.75-2.22,1.76-2.95,3.02-.73,1.26-1.09,2.67-1.09,4.22s.37,2.95,1.13,4.22c.75,1.26,1.75,2.27,2.99,3.01,1.24.74,2.6,1.11,4.07,1.11Z"/>
    <path class="cls-1" d="M173.17,36.13h-5.21l-.02,19.11h-3.86l.02-19.11h-3.95v-3.86h3.95l-.02-7.21h3.86l.02,7.21h5.21v3.86Z"/>
  </g>
  <path class="cls-1" d="M49.96,36.22h0s1.08-.28,1.08-.28l-.83-3.16-1.08.28h0l-12.28,3.22,9.98-9.75-2.31-2.36-10.01,9.78,3.84-13.38-3.14-.9-3.59,12.51-4.15-12.52-3.1,1.03,4.27,12.89-7.29-7.46-2.34-2.4c-.43.35-.84.72-1.24,1.12-.4.39-.78.8-1.14,1.21-6.67,7.7-6.43,19.36.82,26.77,7.25,7.42,18.9,7.92,26.75,1.43.42-.35.84-.72,1.24-1.11.4-.39.78-.8,1.14-1.22l-2.33-2.38-6.71-6.86,12.17,4.07,1.04-3.1-12.79-4.27,12.01-3.15ZM19.82,50.5c-5.96-6.1-6.22-15.66-.86-22.06l11.65,11.92h0s0,0,0,0l11.24,11.5c-6.53,5.21-16.07,4.73-22.03-1.37Z"/>
</svg>