<?xml version="1.0" encoding="UTF-8"?>
<svg id="logo_en_horizontal_y_V" data-name="logo en horizontal y V" xmlns="http://www.w3.org/2000/svg" viewBox="0 0 78.69 78.7">
  <defs>
    <style>
      .cls-1 {
        fill: #2ad9dd;
      }
    </style>
  </defs>
  <path class="cls-1" d="M65.62,35.37h0l1.54-.4-1.18-4.5-19.02,4.99,14.2-13.88-3.28-3.36-14.25,13.92,5.46-19.05-4.47-1.28-5.11,17.81-5.91-17.82-4.42,1.46,6.08,18.35-10.38-10.62-3.34-3.41c-.61.5-1.2,1.03-1.77,1.59-.57.56-1.11,1.13-1.62,1.72-9.49,10.96-9.15,27.55,1.16,38.11,10.32,10.56,26.9,11.28,38.07,2.04.6-.5,1.19-1.03,1.76-1.58.57-.56,1.11-1.14,1.63-1.73l-3.31-3.39-9.54-9.77,17.32,5.79,1.48-4.42-18.2-6.08,17.09-4.48ZM22.72,55.7c-8.49-8.69-8.86-22.28-1.22-31.4l16.58,16.97h0s.01.01.01.01l16,16.37c-9.29,7.42-22.88,6.74-31.36-1.95Z"/>
</svg>