<?xml version="1.0" encoding="UTF-8"?>
<svg id="logo_en_horizontal_y_V" data-name="logo en horizontal y V" xmlns="http://www.w3.org/2000/svg" viewBox="0 0 133.18 123.86">
  <defs>
    <style>
      .cls-1 {
        fill: #2ad9dd;
      }
    </style>
  </defs>
  <path class="cls-1" d="M92.96,35.42h0l1.54-.4-1.18-4.5-19.02,4.99,14.2-13.88-3.28-3.36-14.25,13.92,5.46-19.05-4.47-1.28-5.11,17.81-5.91-17.82-4.42,1.46,6.08,18.35-10.38-10.62-3.34-3.41c-.61.5-1.2,1.03-1.77,1.59-.57.56-1.11,1.13-1.62,1.72-9.49,10.96-9.15,27.55,1.16,38.11,10.32,10.56,26.9,11.28,38.07,2.04.6-.5,1.19-1.03,1.76-1.58.57-.56,1.11-1.14,1.63-1.73l-3.31-3.39-9.54-9.77,17.32,5.79,1.48-4.42-18.2-6.08,17.09-4.48ZM50.06,55.74c-8.49-8.69-8.86-22.28-1.22-31.4l16.58,16.97h0s.01.01.01.01l16,16.37c-9.29,7.42-22.88,6.74-31.36-1.95Z"/>
  <g>
    <path class="cls-1" d="M12.34,111.52v-32.16h19.73v3.86h-15.87v9.14h13v3.86h-13v11.44h15.87v3.86H12.34Z"/>
    <path class="cls-1" d="M42.75,111.95c-1.24-.05-2.45-.28-3.62-.7-1.17-.42-2.2-1-3.08-1.72-.88-.73-1.52-1.57-1.92-2.52l3.31-1.42c.23.52.64,1.01,1.24,1.47.6.46,1.29.83,2.07,1.1.78.28,1.57.41,2.37.41.84,0,1.63-.13,2.37-.39.74-.26,1.34-.65,1.8-1.16.47-.51.7-1.13.7-1.85,0-.77-.26-1.37-.77-1.8-.51-.44-1.16-.78-1.93-1.03-.77-.25-1.56-.49-2.35-.72-1.58-.4-2.99-.88-4.23-1.44-1.24-.56-2.22-1.27-2.93-2.14-.71-.86-1.07-1.97-1.07-3.32,0-1.42.39-2.66,1.18-3.7.79-1.04,1.83-1.85,3.11-2.41,1.29-.57,2.66-.85,4.13-.85,1.85,0,3.55.4,5.08,1.19,1.53.8,2.67,1.88,3.42,3.24l-3.1,1.81c-.26-.55-.66-1.04-1.19-1.46-.54-.42-1.15-.75-1.84-1-.69-.24-1.39-.37-2.11-.39-.89-.03-1.72.08-2.49.34-.77.26-1.39.65-1.86,1.18-.47.53-.7,1.18-.7,1.96s.25,1.35.75,1.75c.5.4,1.15.72,1.95.95.8.24,1.68.51,2.63.82,1.39.44,2.69.96,3.9,1.54,1.21.58,2.19,1.31,2.93,2.18.74.87,1.11,1.95,1.09,3.24,0,1.41-.42,2.64-1.26,3.69-.84,1.05-1.93,1.85-3.27,2.4-1.34.55-2.78.8-4.31.73Z"/>
    <path class="cls-1" d="M69.79,105.45l3.45,1.86c-1.04,1.46-2.36,2.62-3.96,3.49-1.6.87-3.34,1.31-5.2,1.31-2.11,0-4.04-.54-5.78-1.63-1.74-1.09-3.12-2.55-4.16-4.38-1.03-1.83-1.55-3.86-1.55-6.08,0-1.68.3-3.26.9-4.72.6-1.46,1.42-2.75,2.47-3.86,1.05-1.11,2.27-1.98,3.66-2.61,1.39-.63,2.88-.94,4.46-.94,1.87,0,3.6.44,5.2,1.31,1.6.87,2.92,2.04,3.96,3.51l-3.45,1.86c-.74-.9-1.61-1.6-2.62-2.09-1.01-.49-2.04-.73-3.1-.73-1.42,0-2.71.38-3.87,1.14-1.16.76-2.07,1.77-2.75,3.02-.67,1.26-1.01,2.63-1.01,4.11s.34,2.85,1.02,4.1c.68,1.25,1.6,2.25,2.76,3,1.16.75,2.44,1.13,3.85,1.13,1.13,0,2.2-.26,3.19-.78,1-.52,1.84-1.19,2.53-2.02Z"/>
    <path class="cls-1" d="M75.58,111.52v-34.46h3.86v34.46h-3.86Z"/>
    <path class="cls-1" d="M101.83,88.55h3.86v22.97h-3.86l-.16-3.88c-.72,1.33-1.71,2.41-2.97,3.24-1.26.83-2.77,1.24-4.51,1.24s-3.26-.32-4.73-.95c-1.47-.64-2.77-1.52-3.89-2.64-1.13-1.13-2-2.42-2.63-3.89-.63-1.47-.94-3.06-.94-4.75s.31-3.18.92-4.64c.61-1.45,1.47-2.73,2.56-3.82,1.09-1.09,2.36-1.95,3.8-2.57,1.44-.62,2.99-.93,4.64-.93,1.81,0,3.39.43,4.75,1.27,1.36.85,2.47,1.95,3.31,3.3l-.14-3.93ZM94.12,108.37c1.52,0,2.83-.37,3.94-1.11,1.11-.74,1.97-1.75,2.57-3.02.6-1.27.91-2.67.91-4.2s-.31-2.97-.92-4.24c-.61-1.26-1.47-2.27-2.58-3.01-1.11-.74-2.42-1.11-3.92-1.11s-2.89.38-4.13,1.13c-1.24.75-2.22,1.76-2.95,3.02-.73,1.26-1.09,2.67-1.09,4.22s.37,2.95,1.13,4.22c.75,1.26,1.75,2.27,2.99,3.01,1.24.74,2.6,1.11,4.07,1.11Z"/>
    <path class="cls-1" d="M120.81,92.4h-5.21l-.02,19.11h-3.86l.02-19.11h-3.95v-3.86h3.95l-.02-7.21h3.86l.02,7.21h5.21v3.86Z"/>
  </g>
</svg>